<?xml version="1.0" encoding="UTF-8"?>
<svg width="320px" height="120px" viewBox="0 0 320 120" version="1.1" xmlns="http://www.w3.org/2000/svg" xmlns:xlink="http://www.w3.org/1999/xlink">
    <title>菜单_个人_切图</title>
    <defs>
        <rect id="path-1" x="0" y="0" width="320" height="120"></rect>
        <polygon id="path-3" points="0 3.74700271e-15 320 3.74700271e-15 320 120 0 120"></polygon>
        <linearGradient x1="50%" y1="25.7763029%" x2="50%" y2="100%" id="linearGradient-5">
            <stop stop-color="#71A0FF" offset="0%"></stop>
            <stop stop-color="#6698FF" offset="100%"></stop>
        </linearGradient>
        <linearGradient x1="43.8539382%" y1="29.349385%" x2="50%" y2="100%" id="linearGradient-6">
            <stop stop-color="#7AA7FF" offset="0%"></stop>
            <stop stop-color="#6698FF" offset="100%"></stop>
        </linearGradient>
        <linearGradient x1="50%" y1="25.7763029%" x2="50%" y2="100%" id="linearGradient-7">
            <stop stop-color="#71A0FF" offset="0%"></stop>
            <stop stop-color="#6698FF" offset="100%"></stop>
        </linearGradient>
        <linearGradient x1="43.4870885%" y1="29.349385%" x2="50%" y2="100%" id="linearGradient-8">
            <stop stop-color="#7AA7FF" offset="0%"></stop>
            <stop stop-color="#6698FF" offset="100%"></stop>
        </linearGradient>
        <linearGradient x1="50%" y1="25.7763029%" x2="50%" y2="100%" id="linearGradient-9">
            <stop stop-color="#71A0FF" offset="0%"></stop>
            <stop stop-color="#6698FF" offset="100%"></stop>
        </linearGradient>
    </defs>
    <g id="菜单_个人_切图" stroke="none" stroke-width="1" fill="none" fill-rule="evenodd">
        <g id="椭圆形备份-3">
            <mask id="mask-2" fill="white">
                <use xlink:href="#path-1"></use>
            </mask>
            <use id="蒙版" fill="#6698FF" xlink:href="#path-1"></use>
            <mask id="mask-4" fill="white">
                <use xlink:href="#path-3"></use>
            </mask>
            <use id="蒙版" fill="#6698FF" xlink:href="#path-3"></use>
            <g id="编组-24" mask="url(#mask-4)">
                <g transform="translate(213.000000, 95.000000)">
                    <polygon id="矩形" fill="url(#linearGradient-5)" points="2.09610107e-13 9 18 9 18 46 2.09610107e-13 46"></polygon>
                    <polygon id="矩形备份-22" fill="url(#linearGradient-6)" points="18 10 35 10 35 46 18 46"></polygon>
                    <polygon id="路径-3" fill="#81AAFF" points="-9.23705556e-14 8.43336614 17.7045319 18 35 10.1578359 16.9385004 -1.91846539e-13"></polygon>
                </g>
            </g>
            <g id="编组-24备份-4" mask="url(#mask-4)">
                <g transform="translate(60.000000, 28.000000)">
                    <polygon id="矩形" fill="url(#linearGradient-5)" points="0 9 18 9 18 46 0 46"></polygon>
                    <polygon id="矩形备份-22" fill="url(#linearGradient-6)" points="18 10 35 10 35 46 18 46"></polygon>
                    <polygon id="路径-3" fill="#81AAFF" points="0 8.43336614 17.7045319 18 35 10.1578359 16.9385004 0"></polygon>
                </g>
            </g>
            <g id="编组-24备份-3" opacity="0.600000024" mask="url(#mask-4)">
                <g transform="translate(273.000000, 13.000000)">
                    <polygon id="矩形" fill="url(#linearGradient-7)" points="0 17 35 17 35 92 0 92"></polygon>
                    <polygon id="矩形备份-22" fill="url(#linearGradient-8)" points="35 20 70 20 70 92 35 92"></polygon>
                    <polygon id="路径-3" fill="#81AAFF" points="0 16.8667323 35.4090637 36 70 20.3156719 33.8770008 0"></polygon>
                </g>
            </g>
            <g id="编组-24备份" mask="url(#mask-4)">
                <g transform="translate(-17.000000, 118.500000) scale(-1, 1) translate(17.000000, -118.500000) translate(-62.000000, 59.000000)">
                    <polygon id="矩形" fill="url(#linearGradient-9)" points="0.419163668 22 46.4191637 22 46.4191637 119 0.419163668 119"></polygon>
                    <polygon id="路径-3" fill="#81AAFF" points="0.295344773 21.5519357 45.8212838 46 90.2953448 25.9589141 43.8514887 -1.3500312e-13"></polygon>
                </g>
            </g>
            <g id="蓝反白_大备份" opacity="0.800000012" mask="url(#mask-4)" fill-rule="nonzero">
                <g transform="translate(215.000000, 52.000000)" id="路径">
                    <path d="M10.858552,26.9911869 L1.05368472,17.4138192 C0.379024549,16.7548643 3.57047725e-13,15.8610988 3.57047725e-13,14.9291595 C3.57047725e-13,13.9972203 0.379024549,13.1034548 1.05368472,12.4444999 L3.49816225,10.0567409 C3.57598699,9.98108638 3.70177051,9.98108638 3.77959526,10.0567409 L10.8768829,16.9925119 C12.2362153,18.3189144 13,20.1187365 13,21.9955359 C13,23.8723352 12.2362153,25.6721573 10.8768829,26.9985598 L10.8768829,26.9985598 C10.873494,27.0002917 10.8694943,27.0004705 10.8659577,26.999048 C10.862421,26.9976255 10.8597098,26.9947476 10.858552,26.9911869 L10.858552,26.9911869 Z" fill="#BDDAFF" opacity="0.412021025"></path>
                    <path d="M14.0675964,0.356479488 L13.7330224,0.018564682 C13.7219859,0.00671570643 13.7066169,-4.26325641e-14 13.6905369,-4.26325641e-14 C13.6744568,-4.26325641e-14 13.6590878,0.00671570643 13.6480513,0.018564682 L4.04312473,9.75029587 L4.0314412,9.76428598 L1.27518946,12.5558497 C1.19977757,12.6214956 1.11693069,12.6742275 1.04576735,12.7463303 C-0.348589118,14.1599353 -0.348589118,16.4509509 1.04576735,17.8645559 L6.11429655,23 C4.71935378,21.586641 4.71935378,19.2951335 6.11429655,17.8817745 L8.64006404,15.3226617 L8.64006404,15.3226617 L12.9682821,10.9373023 C12.9728498,10.9321884 12.9771063,10.9267977 12.9810278,10.9211599 L14.0633478,9.82455104 C16.6438909,7.21074247 16.6457926,2.97266443 14.0675964,0.356479488 L14.0675964,0.356479488 Z" fill="#ABC6FE"></path>
                    <path d="M19.1391947,10.004895 L28.9460966,19.5844712 C29.6208968,20.2435781 30,21.1375496 30,22.0697038 C30,23.001858 29.6208968,23.8958295 28.9460966,24.5549364 L26.5011118,26.943246 C26.4232709,27.018918 26.2974613,27.018918 26.2196204,26.943246 L19.12086,20.0058756 C16.2930467,17.2435941 16.2930467,12.7650694 19.12086,10.002788 L19.12086,10.002788 C19.1235659,10.0006638 19.1270319,9.99969044 19.1304796,10 C19.1339272,10.0004828 19.1370674,10.0022154 19.1391947,10.004895 Z" fill="#8AB3FF" opacity="0.779999971"></path>
                    <path d="M15.9300721,37.6435205 L16.2647014,37.9814353 C16.2757398,37.9932843 16.2911113,38 16.3071941,38 C16.3232768,38 16.3386483,37.9932843 16.3496867,37.9814353 L25.9562052,28.2497041 L25.9678906,28.235714 L28.7245992,25.4441503 C28.8000236,25.3785044 28.8828842,25.3257725 28.9540593,25.2536697 C30.3486469,23.8400647 30.3486469,21.5490491 28.9540593,20.1354441 L23.8900016,15 C25.2851756,16.413359 25.2851756,18.7048665 23.8900016,20.1182255 L21.3638155,22.6773383 L21.3638155,22.6773383 L17.0348801,27.0626977 C17.0303116,27.0678116 17.0260545,27.0732023 17.0221323,27.0788401 L15.9396329,28.175449 C13.3571936,30.7877716 13.352914,35.025851 15.9300721,37.6435205 L15.9300721,37.6435205 Z" fill="#B0C9FF" opacity="0.900000036"></path>
                </g>
            </g>
        </g>
    </g>
</svg>